<svg id="visual" viewBox="0 0 960 300" width="960" height="300" xmlns="http://www.w3.org/2000/svg" xmlns:xlink="http://www.w3.org/1999/xlink" version="1.1"><rect x="0" y="0" width="960" height="300" fill="#fff"></rect><path d="M0 48L6.2 46.5C12.3 45 24.7 42 37 42.7C49.3 43.3 61.7 47.7 74 49.5C86.3 51.3 98.7 50.7 111 48.2C123.3 45.7 135.7 41.3 148 39.7C160.3 38 172.7 39 185 41.7C197.3 44.3 209.7 48.7 221.8 48C234 47.3 246 41.7 258.2 40.8C270.3 40 282.7 44 295 45.5C307.3 47 319.7 46 332 44.5C344.3 43 356.7 41 369 42C381.3 43 393.7 47 406 46.8C418.3 46.7 430.7 42.3 443 41.8C455.3 41.3 467.7 44.7 480 46.2C492.3 47.7 504.7 47.3 517 46.8C529.3 46.3 541.7 45.7 554 45.3C566.3 45 578.7 45 591 46.3C603.3 47.7 615.7 50.3 628 50.7C640.3 51 652.7 49 665 46.2C677.3 43.3 689.7 39.7 701.8 38C714 36.3 726 36.7 738.2 39C750.3 41.3 762.7 45.7 775 47.8C787.3 50 799.7 50 812 48C824.3 46 836.7 42 849 40.3C861.3 38.7 873.7 39.3 886 41.8C898.3 44.3 910.7 48.7 923 50C935.3 51.3 947.7 49.7 953.8 48.8L960 48L960 0L953.8 0C947.7 0 935.3 0 923 0C910.7 0 898.3 0 886 0C873.7 0 861.3 0 849 0C836.7 0 824.3 0 812 0C799.7 0 787.3 0 775 0C762.7 0 750.3 0 738.2 0C726 0 714 0 701.8 0C689.7 0 677.3 0 665 0C652.7 0 640.3 0 628 0C615.7 0 603.3 0 591 0C578.7 0 566.3 0 554 0C541.7 0 529.3 0 517 0C504.7 0 492.3 0 480 0C467.7 0 455.3 0 443 0C430.7 0 418.3 0 406 0C393.7 0 381.3 0 369 0C356.7 0 344.3 0 332 0C319.7 0 307.3 0 295 0C282.7 0 270.3 0 258.2 0C246 0 234 0 221.8 0C209.7 0 197.3 0 185 0C172.7 0 160.3 0 148 0C135.7 0 123.3 0 111 0C98.7 0 86.3 0 74 0C61.7 0 49.3 0 37 0C24.7 0 12.3 0 6.2 0L0 0Z" fill="#e27602" stroke-linecap="round" stroke-linejoin="miter"></path></svg>