<svg id="visual" viewBox="0 0 960 300" width="960" height="300" xmlns="http://www.w3.org/2000/svg" xmlns:xlink="http://www.w3.org/1999/xlink" version="1.1"><rect x="0" y="0" width="960" height="300" fill="#fff"></rect><path d="M0 105L26.7 95.3C53.3 85.7 106.7 66.3 160 59.3C213.3 52.3 266.7 57.7 320 62.5C373.3 67.3 426.7 71.7 480 71.7C533.3 71.7 586.7 67.3 640 62.5C693.3 57.7 746.7 52.3 800 59.2C853.3 66 906.7 85 933.3 94.5L960 104L960 0L933.3 0C906.7 0 853.3 0 800 0C746.7 0 693.3 0 640 0C586.7 0 533.3 0 480 0C426.7 0 373.3 0 320 0C266.7 0 213.3 0 160 0C106.7 0 53.3 0 26.7 0L0 0Z" fill="#e27602" stroke-linecap="round" stroke-linejoin="miter"></path></svg>