<svg id="visual" viewBox="0 0 960 300" width="960" height="300" xmlns="http://www.w3.org/2000/svg" xmlns:xlink="http://www.w3.org/1999/xlink" version="1.1"><rect x="0" y="0" width="960" height="300" fill="#fff"></rect><path d="M0 167L20 163.7C40 160.3 80 153.7 120 153.7C160 153.7 200 160.3 240 170.3C280 180.3 320 193.7 360 193.3C400 193 440 179 480 171C520 163 560 161 600 168C640 175 680 191 720 186.3C760 181.7 800 156.3 840 159.7C880 163 920 195 940 211L960 227L960 0L940 0C920 0 880 0 840 0C800 0 760 0 720 0C680 0 640 0 600 0C560 0 520 0 480 0C440 0 400 0 360 0C320 0 280 0 240 0C200 0 160 0 120 0C80 0 40 0 20 0L0 0Z" fill="#ffffff"></path><path d="M0 180L20 178.8C40 177.7 80 175.3 120 174.8C160 174.3 200 175.7 240 172C280 168.3 320 159.7 360 157.8C400 156 440 161 480 156.3C520 151.7 560 137.3 600 141.5C640 145.7 680 168.3 720 179.7C760 191 800 191 840 189.2C880 187.3 920 183.7 940 181.8L960 180L960 0L940 0C920 0 880 0 840 0C800 0 760 0 720 0C680 0 640 0 600 0C560 0 520 0 480 0C440 0 400 0 360 0C320 0 280 0 240 0C200 0 160 0 120 0C80 0 40 0 20 0L0 0Z" fill="#ffdcc3"></path><path d="M0 145L20 144.8C40 144.7 80 144.3 120 137.3C160 130.3 200 116.7 240 110.7C280 104.7 320 106.3 360 103.5C400 100.7 440 93.3 480 100C520 106.7 560 127.3 600 126C640 124.7 680 101.3 720 94C760 86.7 800 95.3 840 97C880 98.7 920 93.3 940 90.7L960 88L960 0L940 0C920 0 880 0 840 0C800 0 760 0 720 0C680 0 640 0 600 0C560 0 520 0 480 0C440 0 400 0 360 0C320 0 280 0 240 0C200 0 160 0 120 0C80 0 40 0 20 0L0 0Z" fill="#fcba89"></path><path d="M0 93L20 93C40 93 80 93 120 92.3C160 91.7 200 90.3 240 84C280 77.7 320 66.3 360 63.2C400 60 440 65 480 65.7C520 66.3 560 62.7 600 66.7C640 70.7 680 82.3 720 83.2C760 84 800 74 840 69.8C880 65.7 920 67.3 940 68.2L960 69L960 0L940 0C920 0 880 0 840 0C800 0 760 0 720 0C680 0 640 0 600 0C560 0 520 0 480 0C440 0 400 0 360 0C320 0 280 0 240 0C200 0 160 0 120 0C80 0 40 0 20 0L0 0Z" fill="#f19850"></path><path d="M0 32L20 34C40 36 80 40 120 45.5C160 51 200 58 240 59.2C280 60.3 320 55.7 360 54.5C400 53.3 440 55.7 480 54.5C520 53.3 560 48.7 600 43.8C640 39 680 34 720 35.7C760 37.3 800 45.7 840 48.2C880 50.7 920 47.3 940 45.7L960 44L960 0L940 0C920 0 880 0 840 0C800 0 760 0 720 0C680 0 640 0 600 0C560 0 520 0 480 0C440 0 400 0 360 0C320 0 280 0 240 0C200 0 160 0 120 0C80 0 40 0 20 0L0 0Z" fill="#e27602"></path></svg>